<svg width="128" height="128" viewBox="0 0 128 128" fill="none" xmlns="http://www.w3.org/2000/svg">
<path d="M46.0505 95.4891C46.2823 95.3417 46.3517 95.0349 46.2061 94.802L44.2259 91.636C44.1493 91.5136 44.0236 91.4303 43.881 91.4074C43.7384 91.3846 43.593 91.4245 43.482 91.5169L38.7295 95.4745C38.533 95.6381 38.4916 95.9236 38.6335 96.1362L39.4257 97.3235C39.4739 97.3958 39.5403 97.4544 39.6181 97.4932L41.2022 98.2848C41.3592 98.3633 41.5459 98.3537 41.694 98.2595L46.0505 95.4891ZM103.286 44.9638L103.291 44.9494L104.479 40.9918C104.502 40.9133 104.506 40.8302 104.49 40.7499L103.698 36.7923C103.692 36.7623 103.683 36.733 103.672 36.7046L102.88 34.7258C102.864 34.685 102.842 34.6466 102.816 34.6115L100.461 31.4743L95.726 22.7993C95.7031 22.7573 95.6743 22.7189 95.6405 22.6851L94.0564 21.1021C93.9923 21.0381 93.912 20.9927 93.8241 20.9707L92.24 20.5749C92.2004 20.565 92.1597 20.56 92.1188 20.56H90.7011L89.3625 19.5568L87.8305 15.7294C87.7929 15.6355 87.7277 15.5552 87.6435 15.4991L86.4555 14.7075C86.2876 14.5957 86.0689 14.5957 85.901 14.7075L84.7128 15.4991C84.6854 15.5173 84.6599 15.5383 84.6366 15.5615L83.8446 16.3531C83.7897 16.408 83.7483 16.4749 83.7237 16.5485L83.3277 17.7358C83.2788 17.8822 83.3003 18.043 83.386 18.1715L84.094 19.2327V20.4572L83.595 20.9558H81.5531L77.3516 18.6657L75.0687 16.7646L73.5421 14.4764L71.9719 11.3381C71.9395 11.2734 71.8935 11.2165 71.8369 11.1713L69.8567 9.58826C69.7943 9.53836 69.7209 9.50416 69.6425 9.4885L67.6623 9.09271C67.6449 9.08923 67.6273 9.08668 67.6096 9.08507L63.3032 8.69384L59.3911 7.52106C59.2347 7.47419 59.0653 7.50658 58.9373 7.60783C58.8093 7.70908 58.7388 7.86645 58.7483 8.02938L59.1444 14.7573C59.1507 14.8641 59.191 14.9661 59.2595 15.0482L63.2199 19.7972C63.2681 19.855 63.3287 19.9011 63.3972 19.9323L67.6711 21.8736L68.6056 22.8076L68.2621 24.5238C68.2524 24.5725 68.2499 24.6224 68.2549 24.6718L68.6443 28.563L68.2592 30.8718L67.8633 33.2464L67.8631 33.2464L67.8615 33.2578L67.4654 36.0282C67.4621 36.0517 67.4604 36.0753 67.4604 36.099V39.6608C67.4604 39.7107 67.4679 39.7603 67.4825 39.8079L69.0508 44.9011L69.4354 49.5138L69.086 50.9105L67.5874 52.7825L65.2307 55.1375C65.1644 55.2038 65.118 55.2873 65.097 55.3787L63.9089 60.5235C63.8962 60.5785 63.8929 60.6352 63.8991 60.6913L64.2951 64.2532C64.2984 64.2832 64.3044 64.3128 64.3131 64.3417L65.4765 68.2167L65.0876 75.9885L64.3327 78.6285L63.6115 79.7097L62.5419 80.7785L60.2776 81.5328C60.0384 81.6125 59.8959 81.8579 59.9454 82.1052L60.3261 84.0079L59.9581 87.3181L57.706 89.5687C57.688 89.5867 57.6714 89.606 57.6563 89.6265L53.3165 95.5402L48.5899 100.657L45.447 103.798L39.2066 108.864L26.2313 112.794C26.1402 112.821 26.0588 112.874 25.9968 112.947L23.6205 115.717C23.4828 115.877 23.461 116.107 23.566 116.291L25.1501 119.061C25.2149 119.174 25.3214 119.258 25.4469 119.294L28.2192 120.085C28.2565 120.096 28.295 120.102 28.3338 120.104L37.0466 120.499C37.091 120.502 37.1355 120.498 37.1789 120.488L53.0205 116.926C53.0599 116.917 53.0981 116.904 53.1343 116.885L55.472 115.718L71.202 111.002H73.8515L75.7832 111.388L77.7634 111.784C77.8584 111.803 77.957 111.794 78.047 111.758L80.0272 110.966C80.0356 110.963 80.0439 110.959 80.0521 110.955C80.0614 110.951 80.0706 110.946 80.0796 110.942L89.4886 105.849L95.3203 105.46C95.3865 105.456 95.4512 105.438 95.5106 105.408L97.0947 104.617C97.1594 104.585 97.2163 104.539 97.2615 104.482L98.8457 102.503C98.932 102.395 98.9699 102.257 98.9503 102.12L98.5665 99.4346L99.3417 95.5611L99.3446 95.5452L99.7407 93.1706C99.7498 93.1162 99.7498 93.0606 99.7407 93.0061L99.3446 90.6315C99.3424 90.6184 99.3397 90.6054 99.3365 90.5924L98.1484 85.8434C98.1378 85.8009 98.1216 85.7601 98.1004 85.7218L96.1202 82.1599C96.1091 82.14 96.0967 82.1209 96.083 82.1027L94.8948 80.5196C94.8898 80.5129 94.8845 80.5062 94.8791 80.4997C94.8694 80.4881 94.8591 80.4769 94.8484 80.4661L93.2643 78.8831L92.6188 78.238V76.9632L95.7479 69.5369C95.7583 69.5121 95.7668 69.4864 95.7731 69.4602L98.5405 58.0038L99.3145 55.6831L100.487 53.3403C100.497 53.3192 100.506 53.2973 100.514 53.2748L103.286 44.9638Z" fill="#070707" stroke="#1B1B1B" stroke-linecap="round" stroke-linejoin="round"/>
</svg>
