<svg width="128" height="128" viewBox="0 0 128 128" fill="none" xmlns="http://www.w3.org/2000/svg">
<path d="M120.824 49.957C120.783 49.7736 120.643 49.6284 120.461 49.5811L113.229 47.698C113.209 47.6928 113.189 47.6888 113.169 47.6861L107.459 46.9328C107.384 46.923 107.309 46.9301 107.237 46.9537L104.953 47.707L103.811 48.0835C103.715 48.1153 103.631 48.1755 103.569 48.2563L102.542 49.6114L100.885 49.9392L92.9527 49.5655C92.8819 49.5622 92.8111 49.5739 92.7452 49.6L90.842 50.3532C90.81 50.3659 90.7794 50.3818 90.7507 50.4007L89.6085 51.154C89.5811 51.1721 89.5555 51.1929 89.5322 51.216L88.1375 52.596L80.2367 53.3067L79.6781 52.4777L78.9383 50.2818C78.8959 50.156 78.8052 50.0522 78.6862 49.9933L77.9251 49.6168C77.8561 49.5827 77.7803 49.5649 77.7034 49.5649H76.5612C76.4983 49.5649 76.4358 49.5768 76.3773 49.6L74.474 50.3532C74.4466 50.3641 74.4202 50.3773 74.3951 50.3929L71.3877 52.2526L69.568 52.9729L67.7575 53.3312H64.7921L61.8839 52.9715L50.1753 45.8712C50.143 45.8516 50.1086 45.8357 50.0727 45.8239L47.7889 45.0706C47.779 45.0673 47.7691 45.0644 47.759 45.0617L21.9245 38.2955L20.4705 37.5762L16.3052 34.9534C16.2708 34.9318 16.234 34.9144 16.1954 34.9017L15.0535 34.5251C14.9518 34.4916 14.842 34.4916 14.7404 34.5251L13.5982 34.9017C13.5711 34.9106 13.5449 34.9218 13.5197 34.9353L8.57135 37.5717C8.5363 37.5903 8.5036 37.6131 8.47394 37.6395L4.66749 41.0291C4.56436 41.121 4.5038 41.2513 4.50017 41.3894C4.49654 41.5274 4.55016 41.6608 4.64832 41.758L7.6171 44.6955L10.6239 52.5043C10.6299 52.5199 10.6367 52.5352 10.6442 52.5501L11.7861 54.8099C11.7955 54.8285 11.806 54.8464 11.8177 54.8637L13.3401 57.1235C13.3551 57.1457 13.3719 57.1667 13.3902 57.1863L18.3388 62.459C18.3703 62.4926 18.4064 62.5217 18.4459 62.5454L29.1039 68.9481C29.1466 68.9737 29.193 68.9929 29.2413 69.0048L32.2178 69.7411L36.7243 72.3421C36.7336 72.3474 36.743 72.3525 36.7526 72.3572L38.9724 73.4554L44.2489 78.3033C44.277 78.329 44.3079 78.3515 44.3411 78.3703L47.0057 79.8768C47.0521 79.903 47.1024 79.9217 47.1547 79.932L50.9611 80.6853C50.9816 80.6894 51.0022 80.6921 51.023 80.6936L56.3036 81.0667L60.3832 82.1676L62.9345 83.6101L65.1271 85.7796L66.237 87.6099C66.244 87.6213 66.2513 87.6325 66.2592 87.6433L70.0656 92.916C70.1133 92.982 70.1763 93.0354 70.2493 93.0715L71.0107 93.4482C71.0796 93.4823 71.1555 93.5 71.2324 93.5H71.9937C72.2227 93.5 72.4224 93.3445 72.4785 93.1225L72.8543 91.6348L73.2286 90.5232C73.2498 90.4603 73.2583 90.3938 73.2535 90.3276L72.8802 85.1552L73.114 84.4611H73.8969C74.1116 84.4611 74.3023 84.3241 74.3708 84.1206L74.7513 82.9907C74.7862 82.8872 74.7862 82.7751 74.7513 82.6715L74.3708 81.5417C74.3459 81.4678 74.304 81.4007 74.2486 81.3459L71.2033 78.3328L70.5905 77.7264V77.5433L71.1728 77.3513L72.8803 78.365C72.9576 78.4109 73.0457 78.4351 73.1356 78.4351H74.2775C74.4813 78.4351 74.6646 78.3114 74.741 78.1225L75.444 76.3836L76.4005 75.7527L77.4612 75.4028L78.9062 75.0455H80.2424L94.206 82.5136L96.0737 83.6224L99.4758 86.2404C99.5177 86.2726 99.5644 86.298 99.6142 86.3156L110.272 90.0818C110.326 90.1007 110.382 90.1104 110.439 90.1104H110.819C111.095 90.1104 111.319 89.8866 111.319 89.6104V87.5275L112.731 85.7819C112.85 85.6342 112.876 85.4315 112.796 85.2588L110.939 81.2153V79.4415C110.939 79.347 110.912 79.2544 110.861 79.1745L109.001 76.2289L107.908 71.9022L108.371 69.8398L108.797 70.5423V73.7922C108.797 73.91 108.839 74.0241 108.914 74.1143L110.818 76.374C110.926 76.5025 111.091 76.568 111.258 76.5486C111.425 76.5291 111.571 76.4273 111.646 76.2774L112.788 74.0177C112.805 73.9849 112.818 73.9503 112.827 73.9147L113.493 71.2792H114.584L114.894 73.1219C114.911 73.2253 114.961 73.3206 115.035 73.3943L116.558 74.9009C116.681 75.0222 116.857 75.0718 117.025 75.032C117.193 74.9922 117.329 74.8686 117.384 74.7051L118.123 72.5092L118.622 71.7687L120.151 72.374C120.279 72.4244 120.422 72.4203 120.546 72.3626C120.67 72.3049 120.765 72.1986 120.809 72.0687L122.332 67.5492C122.339 67.5293 122.344 67.5091 122.348 67.4886L122.727 65.616L122.728 65.6109L123.488 62.2264C123.504 62.1548 123.504 62.0805 123.488 62.0089L120.824 49.957Z" fill="#070707" stroke="#1B1B1B" stroke-linecap="round" stroke-linejoin="round"/>
</svg>
