<svg width="255" height="401" viewBox="0 0 255 401" fill="none" xmlns="http://www.w3.org/2000/svg">
<mask id="path-1-outside-1_50_1628" maskUnits="userSpaceOnUse" x="0" y="0" width="241" height="401" fill="black">
<rect fill="white" width="241" height="401"/>
<path d="M176.637 19.8943L182.195 22.1172L183.307 23.2284L185.53 25.4514L186.642 31.0085V36.5656L189.977 46.5683L186.642 49.9027L177.749 52.1254L178.86 55.4598L183.307 58.794L184.419 62.1281L185.53 67.6852L183.307 75.4653V81.0224L185.53 86.5795L191.088 91.0251L198.87 95.4707L204.428 97.6937L209.986 98.8052H214.432H218.879L222.214 102.139L225.549 109.919L228.884 112.142L236.665 113.253L237.777 115.476L240 119.922L238.888 125.479L236.665 132.148L227.772 141.039L219.991 143.262L204.428 146.596L197.758 148.819L193.312 153.265L189.977 159.933L188.865 167.713L189.977 173.27L193.312 178.827L202.204 199.944V204.39L199.981 207.724L201.093 214.393L204.428 219.95L206.651 225.507V231.064L202.204 248.847L203.316 269.964V275.521L194.423 308.863L196.646 314.421L199.981 322.201L198.87 325.535H195.535H176.637L169.967 327.758L165.521 333.315L161.074 343.318L158.851 349.986L154.405 357.766L148.846 365.546L137.73 372.215L135.507 375.549L133.284 377.772H128.837L125.502 381.106L122.167 388.886L119.944 394.443L109.939 400L98.8231 385.551L93.265 383.329L87.7068 382.217L82.1487 383.329L77.7023 385.551L73.2558 386.663H69.9207L55.4697 382.217H49.9116L45.4651 383.329L39.907 385.551L34.3488 391.108L31.0138 392.22H27.679L24.3439 388.886L22.1209 384.44L21.0092 377.772L22.1209 366.657L24.3439 356.654L25.4556 349.986L23.2326 339.983L15.451 331.092L13.2276 323.312L11.0046 317.755L8.78119 314.421L4.33475 312.198L2.11136 307.752L1 302.195L3.22305 294.415L12.1163 282.189L16.5627 274.409L26.5673 262.184L33.2371 249.958L35.4602 246.624L38.7953 243.29L43.2417 242.178L57.6928 241.067L59.9161 237.733V233.287L54.358 223.284L45.4651 212.17L43.2417 206.613L42.13 191.053L37.6836 169.936L42.13 167.713L46.5765 162.156L45.4651 154.376L47.6882 143.262L48.7999 136.593L47.6882 129.925L44.3534 116.588L38.7953 106.585L35.4602 102.139L31.0138 97.6937L28.7907 95.4707V91.0251L37.6836 69.9082L45.4651 37.6771L47.6882 31.0085L51.0233 24.3399L58.8045 1L64.3626 5.44595L71.0324 12.1142L75.4789 15.4487L81.037 18.7828L95.4884 23.2284L98.8231 25.4514L104.381 27.6743H109.939L118.832 24.3399L124.39 19.8943L132.172 16.5601H139.953L152.181 21.0058L158.851 25.4514L163.297 27.6743L166.632 28.7855L171.079 27.6743L174.414 25.4514L176.637 19.8943Z"/>
</mask>
<path d="M176.637 19.8943L182.195 22.1172L183.307 23.2284L185.53 25.4514L186.642 31.0085V36.5656L189.977 46.5683L186.642 49.9027L177.749 52.1254L178.86 55.4598L183.307 58.794L184.419 62.1281L185.53 67.6852L183.307 75.4653V81.0224L185.53 86.5795L191.088 91.0251L198.87 95.4707L204.428 97.6937L209.986 98.8052H214.432H218.879L222.214 102.139L225.549 109.919L228.884 112.142L236.665 113.253L237.777 115.476L240 119.922L238.888 125.479L236.665 132.148L227.772 141.039L219.991 143.262L204.428 146.596L197.758 148.819L193.312 153.265L189.977 159.933L188.865 167.713L189.977 173.27L193.312 178.827L202.204 199.944V204.39L199.981 207.724L201.093 214.393L204.428 219.95L206.651 225.507V231.064L202.204 248.847L203.316 269.964V275.521L194.423 308.863L196.646 314.421L199.981 322.201L198.87 325.535H195.535H176.637L169.967 327.758L165.521 333.315L161.074 343.318L158.851 349.986L154.405 357.766L148.846 365.546L137.73 372.215L135.507 375.549L133.284 377.772H128.837L125.502 381.106L122.167 388.886L119.944 394.443L109.939 400L98.8231 385.551L93.265 383.329L87.7068 382.217L82.1487 383.329L77.7023 385.551L73.2558 386.663H69.9207L55.4697 382.217H49.9116L45.4651 383.329L39.907 385.551L34.3488 391.108L31.0138 392.22H27.679L24.3439 388.886L22.1209 384.44L21.0092 377.772L22.1209 366.657L24.3439 356.654L25.4556 349.986L23.2326 339.983L15.451 331.092L13.2276 323.312L11.0046 317.755L8.78119 314.421L4.33475 312.198L2.11136 307.752L1 302.195L3.22305 294.415L12.1163 282.189L16.5627 274.409L26.5673 262.184L33.2371 249.958L35.4602 246.624L38.7953 243.29L43.2417 242.178L57.6928 241.067L59.9161 237.733V233.287L54.358 223.284L45.4651 212.17L43.2417 206.613L42.13 191.053L37.6836 169.936L42.13 167.713L46.5765 162.156L45.4651 154.376L47.6882 143.262L48.7999 136.593L47.6882 129.925L44.3534 116.588L38.7953 106.585L35.4602 102.139L31.0138 97.6937L28.7907 95.4707V91.0251L37.6836 69.9082L45.4651 37.6771L47.6882 31.0085L51.0233 24.3399L58.8045 1L64.3626 5.44595L71.0324 12.1142L75.4789 15.4487L81.037 18.7828L95.4884 23.2284L98.8231 25.4514L104.381 27.6743H109.939L118.832 24.3399L124.39 19.8943L132.172 16.5601H139.953L152.181 21.0058L158.851 25.4514L163.297 27.6743L166.632 28.7855L171.079 27.6743L174.414 25.4514L176.637 19.8943Z" fill="#070707"/>
<path d="M176.637 19.8943L182.195 22.1172L183.307 23.2284L185.53 25.4514L186.642 31.0085V36.5656L189.977 46.5683L186.642 49.9027L177.749 52.1254L178.86 55.4598L183.307 58.794L184.419 62.1281L185.53 67.6852L183.307 75.4653V81.0224L185.53 86.5795L191.088 91.0251L198.87 95.4707L204.428 97.6937L209.986 98.8052H214.432H218.879L222.214 102.139L225.549 109.919L228.884 112.142L236.665 113.253L237.777 115.476L240 119.922L238.888 125.479L236.665 132.148L227.772 141.039L219.991 143.262L204.428 146.596L197.758 148.819L193.312 153.265L189.977 159.933L188.865 167.713L189.977 173.27L193.312 178.827L202.204 199.944V204.39L199.981 207.724L201.093 214.393L204.428 219.95L206.651 225.507V231.064L202.204 248.847L203.316 269.964V275.521L194.423 308.863L196.646 314.421L199.981 322.201L198.87 325.535H195.535H176.637L169.967 327.758L165.521 333.315L161.074 343.318L158.851 349.986L154.405 357.766L148.846 365.546L137.73 372.215L135.507 375.549L133.284 377.772H128.837L125.502 381.106L122.167 388.886L119.944 394.443L109.939 400L98.8231 385.551L93.265 383.329L87.7068 382.217L82.1487 383.329L77.7023 385.551L73.2558 386.663H69.9207L55.4697 382.217H49.9116L45.4651 383.329L39.907 385.551L34.3488 391.108L31.0138 392.22H27.679L24.3439 388.886L22.1209 384.44L21.0092 377.772L22.1209 366.657L24.3439 356.654L25.4556 349.986L23.2326 339.983L15.451 331.092L13.2276 323.312L11.0046 317.755L8.78119 314.421L4.33475 312.198L2.11136 307.752L1 302.195L3.22305 294.415L12.1163 282.189L16.5627 274.409L26.5673 262.184L33.2371 249.958L35.4602 246.624L38.7953 243.29L43.2417 242.178L57.6928 241.067L59.9161 237.733V233.287L54.358 223.284L45.4651 212.17L43.2417 206.613L42.13 191.053L37.6836 169.936L42.13 167.713L46.5765 162.156L45.4651 154.376L47.6882 143.262L48.7999 136.593L47.6882 129.925L44.3534 116.588L38.7953 106.585L35.4602 102.139L31.0138 97.6937L28.7907 95.4707V91.0251L37.6836 69.9082L45.4651 37.6771L47.6882 31.0085L51.0233 24.3399L58.8045 1L64.3626 5.44595L71.0324 12.1142L75.4789 15.4487L81.037 18.7828L95.4884 23.2284L98.8231 25.4514L104.381 27.6743H109.939L118.832 24.3399L124.39 19.8943L132.172 16.5601H139.953L152.181 21.0058L158.851 25.4514L163.297 27.6743L166.632 28.7855L171.079 27.6743L174.414 25.4514L176.637 19.8943Z" stroke="#1B1B1B" stroke-width="2" stroke-linecap="round" stroke-linejoin="round" mask="url(#path-1-outside-1_50_1628)"/>
<circle cx="83" cy="43" r="6" fill="#D7092E"/>
<circle opacity="0.2" cx="83" cy="43" r="31" stroke="#D7092E" stroke-width="2" stroke-dasharray="6 6"/>
<path d="M101.84 38.724H114.132V40.236H101.84V38.724ZM102.96 44.562H113.054V46.004H102.96V44.562ZM105.144 41.986H110.772V43.428H105.144V41.986ZM110.17 39.424C111.066 40.894 112.844 42.252 114.692 42.924C114.328 43.246 113.81 43.89 113.544 44.31C111.612 43.456 109.862 41.804 108.784 39.942L110.17 39.424ZM107.16 45.458H108.854V48.664C108.854 49.434 108.686 49.812 108.112 50.036C107.538 50.246 106.796 50.26 105.802 50.26C105.704 49.826 105.438 49.21 105.214 48.818C105.858 48.846 106.67 48.846 106.866 48.832C107.09 48.832 107.16 48.79 107.16 48.622V45.458ZM104.122 46.522L105.732 47.012C105.074 48.118 103.996 49.224 103.058 49.924C102.736 49.63 102.092 49.098 101.714 48.874C102.652 48.3 103.59 47.404 104.122 46.522ZM109.918 47.264L111.276 46.48C112.172 47.236 113.334 48.328 113.894 49.07L112.438 49.938C111.934 49.21 110.814 48.062 109.918 47.264ZM106.614 37.1L108.448 37.338C107.51 40.166 105.746 42.714 102.344 44.394C102.12 43.974 101.574 43.358 101.196 43.092C104.43 41.692 106.012 39.41 106.614 37.1ZM118.36 40.922H125.808V42.252H118.36V40.922ZM121.02 37.072H122.784V39.172H121.02V37.072ZM115.91 48.496C117.548 48.3 120.026 47.922 122.322 47.558L122.434 49.126C120.292 49.49 117.982 49.854 116.302 50.12L115.91 48.496ZM122.308 44.072C123.218 46.62 125.206 48.216 128.58 48.762C128.216 49.126 127.754 49.84 127.516 50.288C123.848 49.532 121.902 47.642 120.74 44.436L122.308 44.072ZM126.634 44.31L127.95 45.332C126.83 46.2 125.346 47.124 124.226 47.684L123.106 46.732C124.212 46.158 125.71 45.136 126.634 44.31ZM118.29 38.416H126.858V44.828H118.29V43.358H125.136V39.872H118.29V38.416ZM117.394 38.416H119.116V48.748L117.394 48.888V38.416ZM135.048 37.058H136.854V39.9H135.048V37.058ZM135.076 40.418H136.826V50.288H135.076V40.418ZM129.588 38.892H142.44V40.53H129.588V38.892ZM130.918 42H140.144V43.638H132.612V48.58H130.918V42ZM139.514 42H141.264V46.746C141.264 47.558 141.096 48.034 140.508 48.3C139.92 48.552 139.108 48.58 138.016 48.58C137.946 48.09 137.694 47.376 137.456 46.928C138.156 46.956 138.996 46.956 139.206 46.956C139.444 46.956 139.514 46.9 139.514 46.718V42Z" fill="#E4EEEC"/>
<circle cx="148" cy="43" r="1" fill="#F7F7F7"/>
<path d="M154.152 50V38.08H155.848L162.408 46.912L161.528 47.088V38.08H163.704V50H161.992L155.528 41.104L156.328 40.928V50H154.152ZM168.475 50.192C167.867 50.192 167.339 50.0907 166.891 49.888C166.443 49.6853 166.097 49.3973 165.851 49.024C165.606 48.64 165.483 48.1973 165.483 47.696C165.483 47.216 165.59 46.7893 165.803 46.416C166.017 46.032 166.347 45.712 166.795 45.456C167.243 45.2 167.809 45.0187 168.491 44.912L171.339 44.448V46.048L168.891 46.464C168.475 46.5387 168.166 46.672 167.963 46.864C167.761 47.056 167.659 47.3067 167.659 47.616C167.659 47.9147 167.771 48.1547 167.995 48.336C168.23 48.5067 168.518 48.592 168.859 48.592C169.297 48.592 169.681 48.5013 170.011 48.32C170.353 48.128 170.614 47.8667 170.795 47.536C170.987 47.2053 171.083 46.8427 171.083 46.448V44.208C171.083 43.8347 170.934 43.5253 170.635 43.28C170.347 43.024 169.963 42.896 169.483 42.896C169.035 42.896 168.635 43.0187 168.283 43.264C167.942 43.4987 167.691 43.8133 167.531 44.208L165.819 43.376C165.99 42.9173 166.257 42.5227 166.619 42.192C166.993 41.8507 167.43 41.584 167.931 41.392C168.433 41.2 168.977 41.104 169.563 41.104C170.278 41.104 170.907 41.2373 171.451 41.504C171.995 41.76 172.417 42.1227 172.715 42.592C173.025 43.0507 173.179 43.5893 173.179 44.208V50H171.195V48.512L171.643 48.48C171.419 48.8533 171.153 49.168 170.843 49.424C170.534 49.6693 170.182 49.8613 169.787 50C169.393 50.128 168.955 50.192 168.475 50.192ZM175.117 50V41.296H177.085V43.232L176.925 42.944C177.127 42.2933 177.442 41.84 177.869 41.584C178.306 41.328 178.829 41.2 179.437 41.2H179.949V43.056H179.197C178.599 43.056 178.119 43.2427 177.757 43.616C177.394 43.9787 177.213 44.4907 177.213 45.152V50H175.117ZM183.741 50.192C183.133 50.192 182.605 50.0907 182.157 49.888C181.709 49.6853 181.362 49.3973 181.117 49.024C180.872 48.64 180.749 48.1973 180.749 47.696C180.749 47.216 180.856 46.7893 181.069 46.416C181.282 46.032 181.613 45.712 182.061 45.456C182.509 45.2 183.074 45.0187 183.757 44.912L186.605 44.448V46.048L184.157 46.464C183.741 46.5387 183.432 46.672 183.229 46.864C183.026 47.056 182.925 47.3067 182.925 47.616C182.925 47.9147 183.037 48.1547 183.261 48.336C183.496 48.5067 183.784 48.592 184.125 48.592C184.562 48.592 184.946 48.5013 185.277 48.32C185.618 48.128 185.88 47.8667 186.061 47.536C186.253 47.2053 186.349 46.8427 186.349 46.448V44.208C186.349 43.8347 186.2 43.5253 185.901 43.28C185.613 43.024 185.229 42.896 184.749 42.896C184.301 42.896 183.901 43.0187 183.549 43.264C183.208 43.4987 182.957 43.8133 182.797 44.208L181.085 43.376C181.256 42.9173 181.522 42.5227 181.885 42.192C182.258 41.8507 182.696 41.584 183.197 41.392C183.698 41.2 184.242 41.104 184.829 41.104C185.544 41.104 186.173 41.2373 186.717 41.504C187.261 41.76 187.682 42.1227 187.981 42.592C188.29 43.0507 188.445 43.5893 188.445 44.208V50H186.461V48.512L186.909 48.48C186.685 48.8533 186.418 49.168 186.109 49.424C185.8 49.6693 185.448 49.8613 185.053 50C184.658 50.128 184.221 50.192 183.741 50.192ZM199.002 50.192C198.149 50.192 197.359 50.0373 196.634 49.728C195.919 49.4187 195.29 48.9867 194.746 48.432C194.213 47.8773 193.797 47.2267 193.498 46.48C193.199 45.7333 193.05 44.9173 193.05 44.032C193.05 43.1467 193.194 42.3307 193.482 41.584C193.781 40.8267 194.197 40.176 194.73 39.632C195.274 39.0773 195.909 38.6507 196.634 38.352C197.359 38.0427 198.149 37.888 199.002 37.888C199.855 37.888 200.618 38.032 201.29 38.32C201.973 38.608 202.549 38.992 203.018 39.472C203.487 39.9413 203.823 40.4587 204.026 41.024L202.074 41.936C201.85 41.3387 201.471 40.848 200.938 40.464C200.405 40.0693 199.759 39.872 199.002 39.872C198.255 39.872 197.594 40.048 197.018 40.4C196.453 40.752 196.01 41.2373 195.69 41.856C195.381 42.4747 195.226 43.2 195.226 44.032C195.226 44.864 195.381 45.5947 195.69 46.224C196.01 46.8427 196.453 47.328 197.018 47.68C197.594 48.032 198.255 48.208 199.002 48.208C199.759 48.208 200.405 48.016 200.938 47.632C201.471 47.2373 201.85 46.7413 202.074 46.144L204.026 47.056C203.823 47.6213 203.487 48.144 203.018 48.624C202.549 49.0933 201.973 49.472 201.29 49.76C200.618 50.048 199.855 50.192 199.002 50.192ZM205.617 50V41.296H207.713V50H205.617ZM205.617 40.32V38.08H207.713V40.32H205.617ZM213.616 50.096C212.635 50.096 211.872 49.8293 211.328 49.296C210.795 48.752 210.528 47.9893 210.528 47.008V43.168H209.024V41.296H209.184C209.611 41.296 209.941 41.184 210.176 40.96C210.411 40.736 210.528 40.4107 210.528 39.984V39.312H212.624V41.296H214.624V43.168H212.624V46.896C212.624 47.184 212.672 47.4293 212.768 47.632C212.875 47.8347 213.035 47.9893 213.248 48.096C213.472 48.2027 213.755 48.256 214.096 48.256C214.171 48.256 214.256 48.2507 214.352 48.24C214.459 48.2293 214.56 48.2187 214.656 48.208V50C214.507 50.0213 214.336 50.0427 214.144 50.064C213.952 50.0853 213.776 50.096 213.616 50.096ZM217.313 53.536C217.079 53.536 216.849 53.5147 216.625 53.472C216.401 53.44 216.199 53.3813 216.017 53.296V51.536C216.156 51.568 216.321 51.6 216.513 51.632C216.716 51.664 216.903 51.68 217.073 51.68C217.553 51.68 217.9 51.568 218.113 51.344C218.337 51.12 218.535 50.8267 218.705 50.464L219.281 49.12L219.249 50.88L215.457 41.296H217.713L220.369 48.368H219.569L222.209 41.296H224.481L220.689 50.88C220.465 51.4453 220.193 51.9253 219.873 52.32C219.553 52.7147 219.18 53.0133 218.753 53.216C218.337 53.4293 217.857 53.536 217.313 53.536Z" fill="#E4EEEC"/>
</svg>
