<svg width="120" height="60" viewBox="0 0 120 60" fill="none" xmlns="http://www.w3.org/2000/svg">
<path d="M116.824 15.957C116.783 15.7736 116.643 15.6284 116.461 15.5811L109.229 13.698C109.209 13.6928 109.189 13.6888 109.169 13.6861L103.459 12.9328C103.384 12.923 103.309 12.9301 103.237 12.9537L100.953 13.707L99.8112 14.0835C99.7149 14.1153 99.6305 14.1755 99.5693 14.2563L98.5423 15.6114L96.8853 15.9392L88.9527 15.5655C88.8819 15.5622 88.8111 15.5739 88.7452 15.6L86.842 16.3532C86.81 16.3659 86.7794 16.3818 86.7507 16.4007L85.6085 17.154C85.5811 17.1721 85.5555 17.1929 85.5322 17.216L84.1375 18.596L76.2367 19.3067L75.6781 18.4777L74.9383 16.2818C74.8959 16.156 74.8052 16.0522 74.6862 15.9933L73.9251 15.6168C73.8561 15.5827 73.7803 15.5649 73.7034 15.5649H72.5612C72.4983 15.5649 72.4358 15.5768 72.3773 15.6L70.474 16.3532C70.4466 16.3641 70.4202 16.3773 70.3951 16.3929L67.3877 18.2526L65.568 18.9729L63.7575 19.3312H60.7921L57.8839 18.9715L46.1753 11.8712C46.143 11.8516 46.1086 11.8357 46.0727 11.8239L43.7889 11.0706C43.779 11.0673 43.7691 11.0644 43.759 11.0617L17.9245 4.29547L16.4705 3.57616L12.3052 0.953422C12.2708 0.931777 12.234 0.914402 12.1954 0.901681L11.0535 0.52515C10.9518 0.49162 10.842 0.491617 10.7404 0.52514L9.59824 0.901672C9.57115 0.910604 9.54487 0.92184 9.51969 0.935255L4.57135 3.57167C4.5363 3.59034 4.5036 3.61312 4.47394 3.63953L0.667485 7.02912C0.564359 7.12096 0.503802 7.25135 0.500173 7.38939C0.496543 7.52743 0.550164 7.66083 0.648322 7.75795L3.6171 10.6955L6.62386 18.5043C6.62987 18.5199 6.63666 18.5352 6.6442 18.5501L7.78609 20.8099C7.79549 20.8285 7.80604 20.8464 7.81768 20.8637L9.34012 23.1235C9.35511 23.1457 9.37186 23.1667 9.39021 23.1863L14.3388 28.459C14.3703 28.4926 14.4064 28.5217 14.4459 28.5454L25.1039 34.9481C25.1466 34.9737 25.193 34.9929 25.2413 35.0048L28.2178 35.7411L32.7243 38.3421C32.7336 38.3474 32.743 38.3525 32.7526 38.3572L34.9724 39.4554L40.2489 44.3033C40.277 44.329 40.3079 44.3515 40.3411 44.3703L43.0057 45.8768C43.0521 45.903 43.1024 45.9217 43.1547 45.932L46.9611 46.6853C46.9816 46.6894 47.0022 46.6921 47.023 46.6936L52.3036 47.0667L56.3832 48.1676L58.9345 49.6101L61.1271 51.7796L62.237 53.6099C62.244 53.6213 62.2513 53.6325 62.2592 53.6433L66.0656 58.916C66.1133 58.982 66.1763 59.0354 66.2493 59.0715L67.0107 59.4482C67.0796 59.4823 67.1555 59.5 67.2324 59.5H67.9937C68.2227 59.5 68.4224 59.3445 68.4785 59.1225L68.8543 57.6348L69.2286 56.5232C69.2498 56.4603 69.2583 56.3938 69.2535 56.3276L68.8802 51.1552L69.114 50.4611H69.8969C70.1116 50.4611 70.3023 50.3241 70.3708 50.1206L70.7513 48.9907C70.7862 48.8872 70.7862 48.7751 70.7513 48.6715L70.3708 47.5417C70.3459 47.4678 70.304 47.4007 70.2486 47.3459L67.2033 44.3328L66.5905 43.7264V43.5433L67.1728 43.3513L68.8803 44.365C68.9576 44.4109 69.0457 44.4351 69.1356 44.4351H70.2775C70.4813 44.4351 70.6646 44.3114 70.741 44.1225L71.444 42.3836L72.4005 41.7527L73.4612 41.4028L74.9062 41.0455H76.2424L90.206 48.5136L92.0737 49.6224L95.4758 52.2404C95.5177 52.2726 95.5644 52.298 95.6142 52.3156L106.272 56.0818C106.326 56.1007 106.382 56.1104 106.439 56.1104H106.819C107.095 56.1104 107.319 55.8866 107.319 55.6104V53.5275L108.731 51.7819C108.85 51.6342 108.876 51.4315 108.796 51.2588L106.939 47.2153V45.4415C106.939 45.347 106.912 45.2544 106.861 45.1745L105.001 42.2289L103.908 37.9022L104.371 35.8398L104.797 36.5423V39.7922C104.797 39.91 104.839 40.0241 104.914 40.1143L106.818 42.374C106.926 42.5025 107.091 42.568 107.258 42.5486C107.425 42.5291 107.571 42.4273 107.646 42.2774L108.788 40.0177C108.805 39.9849 108.818 39.9503 108.827 39.9147L109.493 37.2792H110.584L110.894 39.1219C110.911 39.2253 110.961 39.3206 111.035 39.3943L112.558 40.9009C112.681 41.0222 112.857 41.0718 113.025 41.032C113.193 40.9922 113.329 40.8686 113.384 40.7051L114.123 38.5092L114.622 37.7687L116.151 38.374C116.279 38.4244 116.422 38.4203 116.546 38.3626C116.67 38.3049 116.765 38.1986 116.809 38.0687L118.332 33.5492C118.339 33.5293 118.344 33.5091 118.348 33.4886L118.727 31.616L118.728 31.6109L119.488 28.2264C119.504 28.1548 119.504 28.0805 119.488 28.0089L116.824 15.957Z" fill="#070707" stroke="#1B1B1B" stroke-linecap="round" stroke-linejoin="round"/>
</svg>
