<svg width="94" height="31" viewBox="0 0 94 31" fill="none" xmlns="http://www.w3.org/2000/svg">
<path d="M17.5 8.5C17.5 6.81886 17.0015 5.17547 16.0675 3.77765C15.1335 2.37984 13.806 1.29037 12.2528 0.647024C10.6996 0.00367909 8.99057 -0.164649 7.34173 0.163325C5.69289 0.4913 4.17834 1.30085 2.98959 2.48959C1.80085 3.67834 0.991299 5.19289 0.663325 6.84173C0.335351 8.49057 0.503679 10.1996 1.14702 11.7528C1.79037 13.306 2.87984 14.6335 4.27765 15.5675C5.67547 16.5015 7.31886 17 9 17V8.5H17.5Z" fill="#D7092E"/>
<rect x="11.9975" y="11.5" width="5" height="16" fill="#E4EEEC"/>
<rect x="16.9975" y="16.5" width="5" height="11" fill="#E4EEEC"/>
<rect x="21.9975" y="21.5" width="5" height="6" fill="#E4EEEC"/>
<path d="M29.9887 0.835938H32.0468L32.0541 8.22607C32.0493 8.73389 31.9516 9.19775 31.7612 9.61768C31.5756 10.0327 31.3193 10.3916 30.9921 10.6943C30.665 10.9971 30.2792 11.2314 29.8349 11.3975C29.3954 11.5635 28.9218 11.6465 28.414 11.6465C27.8769 11.6465 27.3886 11.5781 26.9492 11.4414C26.5097 11.3047 26.1337 11.0996 25.8212 10.8262C25.5038 10.5576 25.2573 10.2183 25.0815 9.80811C24.9057 9.39795 24.8154 8.91699 24.8105 8.36523H26.8759C26.8759 8.61914 26.9003 8.84131 26.9492 9.03174C26.998 9.22217 27.0712 9.3833 27.1689 9.51514C27.2958 9.67627 27.4619 9.7959 27.6669 9.87402C27.872 9.95215 28.121 9.99121 28.414 9.99121C28.6484 9.99121 28.8632 9.94727 29.0585 9.85938C29.2538 9.7666 29.4199 9.64209 29.5566 9.48584C29.6933 9.32959 29.7983 9.14404 29.8715 8.9292C29.9496 8.70947 29.9887 8.4751 29.9887 8.22607V0.835938ZM37.4902 11.5C37.4413 11.4023 37.3998 11.29 37.3657 11.1631C37.3315 11.0361 37.3022 10.9019 37.2778 10.7603C37.1655 10.8823 37.0361 10.9971 36.8896 11.1045C36.7431 11.2119 36.582 11.3047 36.4062 11.3828C36.2255 11.4658 36.0278 11.5293 35.8129 11.5732C35.5981 11.6221 35.3661 11.6465 35.1171 11.6465C34.7119 11.6465 34.3383 11.5879 33.9965 11.4707C33.6596 11.3535 33.3691 11.1899 33.1249 10.98C32.8808 10.77 32.6904 10.521 32.5536 10.2329C32.4169 9.93994 32.3486 9.62256 32.3486 9.28076C32.3486 8.84131 32.434 8.45312 32.6049 8.11621C32.7758 7.77441 33.0322 7.49365 33.374 7.27393C33.6816 7.07373 34.06 6.92236 34.5092 6.81982C34.9633 6.7124 35.4833 6.65869 36.0693 6.65869H37.2045V6.18994C37.2045 6.00439 37.1752 5.83838 37.1166 5.69189C37.058 5.54053 36.9702 5.41113 36.853 5.30371C36.7309 5.19141 36.5771 5.10596 36.3915 5.04736C36.2109 4.98389 35.9985 4.95215 35.7543 4.95215C35.5395 4.95215 35.3539 4.979 35.1977 5.03271C35.0414 5.08154 34.9145 5.15234 34.8168 5.24512C34.7289 5.32812 34.663 5.42822 34.6191 5.54541C34.58 5.6626 34.5605 5.79199 34.5605 5.93359H32.5244C32.5244 5.59668 32.5976 5.27686 32.7441 4.97412C32.8954 4.67139 33.1152 4.40527 33.4033 4.17578C33.6865 3.94629 34.0331 3.76562 34.4433 3.63379C34.8583 3.49707 35.332 3.42871 35.8642 3.42871C36.3427 3.42871 36.787 3.4873 37.1972 3.60449C37.6122 3.72168 37.9711 3.89502 38.2739 4.12451C38.5766 4.354 38.8134 4.64453 38.9843 4.99609C39.1552 5.34277 39.2407 5.74561 39.2407 6.20459V9.60303C39.2407 10.0278 39.2675 10.3794 39.3212 10.6577C39.3749 10.936 39.4531 11.1753 39.5556 11.3755V11.5H37.4902ZM35.5493 10.0718C35.7543 10.0718 35.9448 10.0474 36.1205 9.99854C36.2963 9.94971 36.455 9.88623 36.5966 9.80811C36.7382 9.72998 36.8603 9.64209 36.9628 9.54443C37.0654 9.44189 37.1459 9.33936 37.2045 9.23682V7.87451H36.1645C35.8471 7.87451 35.5761 7.90625 35.3515 7.96973C35.1269 8.02832 34.9438 8.11133 34.8022 8.21875C34.6606 8.33105 34.5556 8.46533 34.4872 8.62158C34.4189 8.77295 34.3847 8.93896 34.3847 9.11963C34.3847 9.26123 34.4091 9.39307 34.4579 9.51514C34.5117 9.63232 34.5873 9.73242 34.685 9.81543C34.7827 9.89355 34.9023 9.95703 35.0439 10.0059C35.1904 10.0498 35.3588 10.0718 35.5493 10.0718ZM40.0771 14.5469V3.5752H41.9594L42.0327 4.35156C42.1401 4.21973 42.2573 4.10254 42.3842 4C42.5112 3.89258 42.6479 3.7998 42.7944 3.72168C42.9702 3.62891 43.163 3.55811 43.373 3.50928C43.5878 3.45557 43.8173 3.42871 44.0615 3.42871C44.5644 3.42871 45.0087 3.52637 45.3945 3.72168C45.7802 3.91211 46.1049 4.18311 46.3686 4.53467C46.6323 4.89111 46.83 5.31836 46.9619 5.81641C47.0986 6.30957 47.1669 6.85645 47.1669 7.45703V7.61084C47.1669 8.18701 47.0986 8.72168 46.9619 9.21484C46.83 9.70801 46.6347 10.1328 46.3759 10.4893C46.1122 10.8506 45.7875 11.1338 45.4018 11.3389C45.0161 11.5439 44.5742 11.6465 44.0761 11.6465C43.8124 11.6465 43.5683 11.6172 43.3437 11.5586C43.124 11.5049 42.9189 11.4243 42.7285 11.3169C42.6161 11.2485 42.5087 11.1729 42.4062 11.0898C42.3036 11.0068 42.206 10.9141 42.1132 10.8115V14.5469H40.0771ZM45.1308 7.45703C45.1308 7.125 45.0991 6.81494 45.0356 6.52686C44.977 6.23389 44.8842 5.97998 44.7573 5.76514C44.6254 5.55518 44.457 5.38916 44.2519 5.26709C44.0517 5.14502 43.8076 5.08398 43.5195 5.08398C43.3535 5.08398 43.2021 5.10107 43.0654 5.13525C42.9286 5.16455 42.8041 5.2085 42.6918 5.26709C42.5649 5.33545 42.4526 5.4209 42.3549 5.52344C42.2621 5.62598 42.1816 5.74561 42.1132 5.88232V9.19287C42.1767 9.31982 42.2524 9.43457 42.3403 9.53711C42.433 9.63965 42.538 9.72754 42.6552 9.80078C42.7675 9.86914 42.8969 9.92285 43.0434 9.96191C43.1899 9.99609 43.3535 10.0132 43.5341 10.0132C43.8222 10.0132 44.0663 9.94971 44.2665 9.82275C44.4716 9.6958 44.6376 9.52246 44.7646 9.30273C44.8915 9.08301 44.9843 8.8291 45.0429 8.54102C45.1015 8.24805 45.1308 7.93799 45.1308 7.61084V7.45703ZM52.5078 11.5C52.4589 11.4023 52.4174 11.29 52.3832 11.1631C52.3491 11.0361 52.3198 10.9019 52.2953 10.7603C52.183 10.8823 52.0536 10.9971 51.9072 11.1045C51.7607 11.2119 51.5995 11.3047 51.4238 11.3828C51.2431 11.4658 51.0453 11.5293 50.8305 11.5732C50.6157 11.6221 50.3837 11.6465 50.1347 11.6465C49.7294 11.6465 49.3559 11.5879 49.0141 11.4707C48.6772 11.3535 48.3867 11.1899 48.1425 10.98C47.8984 10.77 47.7079 10.521 47.5712 10.2329C47.4345 9.93994 47.3661 9.62256 47.3661 9.28076C47.3661 8.84131 47.4516 8.45312 47.6225 8.11621C47.7934 7.77441 48.0497 7.49365 48.3915 7.27393C48.6992 7.07373 49.0776 6.92236 49.5268 6.81982C49.9809 6.7124 50.5009 6.65869 51.0869 6.65869H52.2221V6.18994C52.2221 6.00439 52.1928 5.83838 52.1342 5.69189C52.0756 5.54053 51.9877 5.41113 51.8705 5.30371C51.7485 5.19141 51.5947 5.10596 51.4091 5.04736C51.2285 4.98389 51.0161 4.95215 50.7719 4.95215C50.5571 4.95215 50.3715 4.979 50.2153 5.03271C50.059 5.08154 49.9321 5.15234 49.8344 5.24512C49.7465 5.32812 49.6806 5.42822 49.6367 5.54541C49.5976 5.6626 49.5781 5.79199 49.5781 5.93359H47.5419C47.5419 5.59668 47.6152 5.27686 47.7617 4.97412C47.913 4.67139 48.1328 4.40527 48.4208 4.17578C48.704 3.94629 49.0507 3.76562 49.4609 3.63379C49.8759 3.49707 50.3495 3.42871 50.8818 3.42871C51.3603 3.42871 51.8046 3.4873 52.2148 3.60449C52.6298 3.72168 52.9887 3.89502 53.2914 4.12451C53.5942 4.354 53.831 4.64453 54.0019 4.99609C54.1728 5.34277 54.2582 5.74561 54.2582 6.20459V9.60303C54.2582 10.0278 54.2851 10.3794 54.3388 10.6577C54.3925 10.936 54.4706 11.1753 54.5732 11.3755V11.5H52.5078ZM50.5668 10.0718C50.7719 10.0718 50.9623 10.0474 51.1381 9.99854C51.3139 9.94971 51.4726 9.88623 51.6142 9.80811C51.7558 9.72998 51.8779 9.64209 51.9804 9.54443C52.0829 9.44189 52.1635 9.33936 52.2221 9.23682V7.87451H51.1821C50.8647 7.87451 50.5937 7.90625 50.3691 7.96973C50.1445 8.02832 49.9614 8.11133 49.8198 8.21875C49.6782 8.33105 49.5732 8.46533 49.5048 8.62158C49.4365 8.77295 49.4023 8.93896 49.4023 9.11963C49.4023 9.26123 49.4267 9.39307 49.4755 9.51514C49.5292 9.63232 49.6049 9.73242 49.7026 9.81543C49.8002 9.89355 49.9199 9.95703 50.0615 10.0059C50.2079 10.0498 50.3764 10.0718 50.5668 10.0718ZM55.0654 11.5V3.5752H56.9111L57.0356 4.67383C57.1381 4.52734 57.2504 4.39307 57.3725 4.271C57.4946 4.14893 57.624 4.03906 57.7607 3.94141C57.9951 3.77539 58.2514 3.64844 58.5297 3.56055C58.808 3.47266 59.1035 3.42871 59.416 3.42871C59.8163 3.42871 60.1826 3.4873 60.5146 3.60449C60.8466 3.72168 61.1347 3.90723 61.3788 4.16113C61.6181 4.41992 61.8036 4.75195 61.9355 5.15723C62.0722 5.55762 62.1406 6.0459 62.1406 6.62207V11.5H60.1044V6.65137C60.1044 6.33887 60.0678 6.08252 59.9946 5.88232C59.9262 5.67725 59.8261 5.51611 59.6943 5.39893C59.5624 5.28174 59.4037 5.20117 59.2182 5.15723C59.0327 5.1084 58.8227 5.08398 58.5883 5.08398C58.393 5.08398 58.2123 5.10596 58.0463 5.1499C57.8852 5.19385 57.7411 5.25977 57.6142 5.34766C57.5117 5.41113 57.4189 5.48682 57.3359 5.57471C57.2529 5.6626 57.1772 5.76025 57.1088 5.86768V11.5H55.0654ZM39.0283 22.8271H34.6484V25.8374H39.768V27.5H32.5829V16.8359H39.746V18.5132H34.6484V21.2012H39.0283V22.8271ZM43.6733 22.0508L45.4164 19.5752H47.6064L44.9477 23.4644L47.7016 27.5H45.5043L43.6806 24.9072L41.8715 27.5H39.6669L42.4208 23.4644L39.7695 19.5752H41.9594L43.6733 22.0508ZM47.5859 30.5469V19.5752H49.4682L49.5414 20.3516C49.6489 20.2197 49.7661 20.1025 49.893 20C50.02 19.8926 50.1567 19.7998 50.3032 19.7217C50.4789 19.6289 50.6718 19.5581 50.8818 19.5093C51.0966 19.4556 51.3261 19.4287 51.5703 19.4287C52.0732 19.4287 52.5175 19.5264 52.9033 19.7217C53.289 19.9121 53.6137 20.1831 53.8774 20.5347C54.1411 20.8911 54.3388 21.3184 54.4706 21.8164C54.6074 22.3096 54.6757 22.8564 54.6757 23.457V23.6108C54.6757 24.187 54.6074 24.7217 54.4706 25.2148C54.3388 25.708 54.1435 26.1328 53.8847 26.4893C53.621 26.8506 53.2963 27.1338 52.9106 27.3389C52.5248 27.5439 52.0829 27.6465 51.5849 27.6465C51.3212 27.6465 51.0771 27.6172 50.8525 27.5586C50.6328 27.5049 50.4277 27.4243 50.2372 27.3169C50.1249 27.2485 50.0175 27.1729 49.915 27.0898C49.8124 27.0068 49.7148 26.9141 49.622 26.8115V30.5469H47.5859ZM52.6396 23.457C52.6396 23.125 52.6078 22.8149 52.5444 22.5269C52.4858 22.2339 52.393 21.98 52.2661 21.7651C52.1342 21.5552 51.9658 21.3892 51.7607 21.2671C51.5605 21.145 51.3163 21.084 51.0283 21.084C50.8622 21.084 50.7109 21.1011 50.5742 21.1353C50.4374 21.1646 50.3129 21.2085 50.2006 21.2671C50.0737 21.3354 49.9614 21.4209 49.8637 21.5234C49.7709 21.626 49.6904 21.7456 49.622 21.8823V25.1929C49.6855 25.3198 49.7612 25.4346 49.8491 25.5371C49.9418 25.6396 50.0468 25.7275 50.164 25.8008C50.2763 25.8691 50.4057 25.9229 50.5522 25.9619C50.6987 25.9961 50.8622 26.0132 51.0429 26.0132C51.331 26.0132 51.5751 25.9497 51.7753 25.8228C51.9804 25.6958 52.1464 25.5225 52.2734 25.3027C52.4003 25.083 52.4931 24.8291 52.5517 24.541C52.6103 24.248 52.6396 23.938 52.6396 23.6108V23.457ZM55.4902 16.25H59.9213V25.8447H62.1918V27.5H55.4902V25.8447H57.8632V17.9126H55.4902V16.25ZM62.2958 23.4644C62.2958 22.8882 62.3788 22.356 62.5449 21.8677C62.7109 21.3745 62.955 20.9473 63.2773 20.5859C63.5947 20.2246 63.9828 19.9414 64.4418 19.7363C64.9057 19.5312 65.4355 19.4287 66.0312 19.4287C66.6269 19.4287 67.1567 19.5312 67.6205 19.7363C68.0844 19.9414 68.4775 20.2246 68.7997 20.5859C69.1171 20.9473 69.3588 21.3745 69.5248 21.8677C69.6909 22.356 69.7739 22.8882 69.7739 23.4644V23.6182C69.7739 24.1992 69.6909 24.7363 69.5248 25.2295C69.3588 25.7178 69.1171 26.1426 68.7997 26.5039C68.4824 26.8652 68.0917 27.1484 67.6279 27.3535C67.164 27.5537 66.6367 27.6538 66.0458 27.6538C65.4501 27.6538 64.9179 27.5537 64.4492 27.3535C63.9853 27.1484 63.5947 26.8652 63.2773 26.5039C62.955 26.1426 62.7109 25.7178 62.5449 25.2295C62.3788 24.7363 62.2958 24.1992 62.2958 23.6182V23.4644ZM64.332 23.6182C64.332 23.9502 64.3637 24.2627 64.4272 24.5557C64.4907 24.8438 64.5908 25.0952 64.7275 25.3101C64.8642 25.5298 65.04 25.7031 65.2548 25.8301C65.4745 25.957 65.7382 26.0205 66.0458 26.0205C66.3437 26.0205 66.6 25.957 66.8149 25.8301C67.0297 25.7031 67.2055 25.5298 67.3422 25.3101C67.4741 25.0952 67.5717 24.8438 67.6352 24.5557C67.6987 24.2627 67.7304 23.9502 67.7304 23.6182V23.4644C67.7304 23.1421 67.6987 22.8369 67.6352 22.5488C67.5717 22.2607 67.4741 22.0068 67.3422 21.7871C67.2055 21.5674 67.0297 21.394 66.8149 21.2671C66.6 21.1401 66.3388 21.0767 66.0312 21.0767C65.7285 21.0767 65.4697 21.1401 65.2548 21.2671C65.04 21.394 64.8642 21.5674 64.7275 21.7871C64.5908 22.0068 64.4907 22.2607 64.4272 22.5488C64.3637 22.8369 64.332 23.1421 64.332 23.4644V23.6182ZM75.7739 19.4287C76.0815 19.4287 76.3647 19.4507 76.6235 19.4946C76.8871 19.5337 77.0995 19.5776 77.2607 19.6265L76.9604 21.6553C76.6918 21.5918 76.416 21.5454 76.1328 21.5161C75.8544 21.4819 75.5883 21.4648 75.3344 21.4648C75.0707 21.4648 74.8315 21.4893 74.6166 21.5381C74.4067 21.582 74.2187 21.6504 74.0527 21.7432C73.8525 21.8506 73.6816 21.9873 73.54 22.1533C73.3984 22.3193 73.2812 22.5146 73.1884 22.7393V27.5H71.1523V19.5752H73.0493L73.1298 20.6958L73.1445 20.8716C73.4667 20.4224 73.8525 20.0708 74.3017 19.8169C74.7509 19.5581 75.2416 19.4287 75.7739 19.4287ZM81.437 27.6465C80.8266 27.6465 80.2724 27.5464 79.7744 27.3462C79.2763 27.146 78.8491 26.8726 78.4926 26.5259C78.1362 26.1841 77.8603 25.7812 77.665 25.3174C77.4745 24.8486 77.3793 24.3481 77.3793 23.8159V23.5229C77.3793 22.9175 77.4745 22.3657 77.665 21.8677C77.8554 21.3647 78.1215 20.9326 78.4633 20.5713C78.8051 20.21 79.2104 19.9292 79.6791 19.729C80.1479 19.5288 80.6581 19.4287 81.2099 19.4287C81.7812 19.4287 82.289 19.5239 82.7333 19.7144C83.1826 19.8999 83.5634 20.1636 83.8759 20.5054C84.1835 20.8472 84.4179 21.2598 84.579 21.7432C84.7402 22.2217 84.8207 22.7515 84.8207 23.3325V24.1968H79.4448V24.2188C79.5131 24.5361 79.601 24.7925 79.7084 24.9878C79.8159 25.1782 79.9599 25.3516 80.1406 25.5078C80.3261 25.6689 80.5385 25.7935 80.7778 25.8813C81.017 25.9692 81.2783 26.0132 81.5615 26.0132C81.9619 26.0132 82.35 25.9375 82.726 25.7861C83.102 25.6348 83.4072 25.4077 83.6415 25.105L84.6596 26.2036C84.4008 26.5698 83.9907 26.9019 83.4291 27.1997C82.8676 27.4976 82.2036 27.6465 81.437 27.6465ZM81.1953 21.0767C80.9658 21.0767 80.7558 21.1182 80.5654 21.2012C80.3749 21.2793 80.2089 21.394 80.0673 21.5454C79.9208 21.6968 79.7988 21.8774 79.7011 22.0874C79.6035 22.2974 79.5302 22.5317 79.4814 22.7905H82.8212V22.6294C82.8212 22.4146 82.7822 22.2119 82.704 22.0215C82.6259 21.8311 82.5185 21.665 82.3818 21.5234C82.2451 21.3867 82.0766 21.2793 81.8764 21.2012C81.6811 21.1182 81.454 21.0767 81.1953 21.0767ZM90.7914 19.4287C91.0991 19.4287 91.3823 19.4507 91.6411 19.4946C91.9047 19.5337 92.1171 19.5776 92.2783 19.6265L91.978 21.6553C91.7094 21.5918 91.4335 21.5454 91.1503 21.5161C90.872 21.4819 90.6059 21.4648 90.352 21.4648C90.0883 21.4648 89.8491 21.4893 89.6342 21.5381C89.4243 21.582 89.2363 21.6504 89.0703 21.7432C88.8701 21.8506 88.6992 21.9873 88.5576 22.1533C88.416 22.3193 88.2988 22.5146 88.206 22.7393V27.5H86.1699V19.5752H88.0668L88.1474 20.6958L88.162 20.8716C88.4843 20.4224 88.8701 20.0708 89.3193 19.8169C89.7685 19.5581 90.2592 19.4287 90.7914 19.4287Z" fill="#E4EEEC"/>
</svg>
